<?xml version="1.0" standalone="no"?>
<!DOCTYPE svg PUBLIC "-//W3C//DTD SVG 20010904//EN"
 "http://www.w3.org/TR/2001/REC-SVG-20010904/DTD/svg10.dtd">
<svg version="1.0" xmlns="http://www.w3.org/2000/svg"
 width="272.000000pt" height="272.000000pt" viewBox="0 0 272.000000 272.000000"
 preserveAspectRatio="xMidYMid meet">
<metadata>
Created by potrace 1.11, written by Peter Selinger 2001-2013
</metadata>
<g transform="translate(0.000000,272.000000) scale(0.100000,-0.100000)"
fill="#000000" stroke="none">
<path d="M1945 1926 c-182 -36 -289 -105 -347 -223 -28 -58 -33 -77 -33 -143
0 -64 4 -82 27 -122 43 -72 107 -121 269 -204 177 -90 209 -117 209 -178 0
-78 -45 -109 -151 -104 l-64 3 -6 71 c-6 80 -29 126 -84 168 -106 82 -284 73
-349 -17 -27 -37 -35 -151 -13 -194 58 -112 235 -186 486 -202 142 -9 309 1
396 24 195 51 321 169 341 320 10 69 -12 128 -69 191 -44 49 -73 66 -244 151
-223 110 -263 140 -263 202 0 71 67 113 153 97 31 -6 33 -8 29 -41 -6 -50 4
-80 40 -120 48 -56 100 -78 196 -83 99 -5 152 11 202 63 67 69 48 177 -44 243
-53 38 -102 59 -201 83 -106 27 -378 35 -480 15z"/>
<path d="M605 1910 c-150 -24 -255 -83 -295 -165 -56 -115 23 -220 174 -232
163 -14 283 87 262 220 l-7 40 42 -6 c96 -13 109 -89 46 -268 l-38 -106 -64
18 c-94 26 -247 43 -329 36 -237 -19 -391 -164 -390 -367 1 -197 176 -329 399
-300 101 14 173 48 249 119 29 27 40 32 44 21 2 -8 26 -35 51 -60 59 -58 129
-82 241 -82 97 0 164 21 228 70 82 62 112 111 112 181 0 49 -15 60 -44 32 -26
-25 -64 -28 -73 -6 -3 9 21 104 53 213 51 172 58 208 58 282 1 71 -4 94 -25
141 -46 98 -128 159 -269 199 -86 25 -323 35 -425 20z m129 -648 c5 -8 -34
-125 -55 -163 -13 -25 -61 -49 -99 -49 -84 0 -64 168 25 206 33 15 121 19 129
6z"/>
</g>
</svg>
